<svg id="Layer_1" height="512" viewBox="0 0 512 512" width="512" xmlns="http://www.w3.org/2000/svg" xmlns:xlink="http://www.w3.org/1999/xlink" data-name="Layer 1"><linearGradient id="GradientFill_1" gradientUnits="userSpaceOnUse" x1="256" x2="256" y1="507.51" y2="4.491"><stop offset="0" stop-color="#6c54a3"/><stop offset="1" stop-color="#00b1d2"/></linearGradient><path d="m496.006 356.3a10.646 10.646 0 0 1 -10.66 10.63h-14.387v-190.63h14.387a10.645 10.645 0 0 1 10.66 10.63zm-41.038 40.5a19.579 19.579 0 0 1 -19.576 19.55h-178.166a8.052 8.052 0 0 0 -4.009 1.071l-118.211 68.229v-61.3a7.965 7.965 0 0 0 -7.972-8h-50.426a19.579 19.579 0 0 1 -19.576-19.55v-250.371a19.581 19.581 0 0 1 19.576-19.55h358.784a19.581 19.581 0 0 1 19.576 19.55zm-428.314-29.87a10.646 10.646 0 0 1 -10.66-10.63v-169.37a10.645 10.645 0 0 1 10.66-10.63h14.387v190.63zm209.487-326.56a19.859 19.859 0 1 1 19.859 19.88 19.9 19.9 0 0 1 -19.859-19.88zm249.205 119.93h-14.387v-13.87a35.593 35.593 0 0 0 -35.567-35.55h-171.373v-35.541a35.9 35.9 0 1 0 -16.038 0v35.54h-171.373a35.593 35.593 0 0 0 -35.567 35.55v13.871h-14.387a26.661 26.661 0 0 0 -26.654 26.63v169.37a26.66 26.66 0 0 0 26.652 26.63h14.389v13.87a35.593 35.593 0 0 0 35.567 35.55h42.407v67.159a8.012 8.012 0 0 0 12.029 6.921l128.3-74.08h176.048a35.593 35.593 0 0 0 35.567-35.55v-13.87h14.387a26.66 26.66 0 0 0 26.654-26.63v-169.37a26.661 26.661 0 0 0 -26.654-26.63zm-168.546 173.78a7.993 7.993 0 0 0 -10.991-2.711 96.044 96.044 0 0 1 -99.626 0 8.006 8.006 0 0 0 -8.3 13.691 112.108 112.108 0 0 0 116.23 0 7.975 7.975 0 0 0 2.689-10.98zm33.727-67.671a27.045 27.045 0 1 0 -27.029-27.04 27.064 27.064 0 0 0 27.029 27.04zm0-70.089a43.045 43.045 0 1 0 43.02 43.049 43.118 43.118 0 0 0 -43.02-43.049zm-189.058 70.089a27.045 27.045 0 1 0 -27.029-27.04 27.064 27.064 0 0 0 27.029 27.04zm0-70.089a43.045 43.045 0 1 0 43.067 43.049 43.078 43.078 0 0 0 -43.067-43.049z" fill="url(#GradientFill_1)" fill-rule="evenodd"/></svg>