<svg version="1.1" id="Layer_1" xmlns="http://www.w3.org/2000/svg" xmlns:xlink="http://www.w3.org/1999/xlink" x="0px" y="0px"
		width="100%" viewBox="0 0 1280 1310" enable-background="new 0 0 1280 1310" xml:space="preserve">
	<path fill="none" opacity="0.000000" stroke="none" 
		d="
	M1281.000000,448.000000 
		C1281.000000,735.999939 1281.000000,1023.499939 1281.000000,1311.000000 
		C854.333435,1311.000000 427.666931,1311.000000 1.000288,1311.000000 
		C1.000192,874.333557 1.000192,437.667084 1.000096,1.000463 
		C427.666382,1.000309 854.332764,1.000309 1280.999512,1.000154 
		C1281.000000,149.833328 1281.000000,298.666656 1281.000000,448.000000 
	M1121.709961,1300.115234 
		C1122.159790,1300.758057 1122.609497,1301.400757 1123.059326,1302.043579 
		C1123.310425,1301.866333 1123.561646,1301.689087 1123.812744,1301.511963 
		C1123.236328,1300.651123 1122.659912,1299.790405 1121.990601,1298.205933 
		C1108.781860,1273.401001 1095.611694,1248.575439 1082.354614,1223.796387 
		C1065.600464,1192.480591 1048.742310,1161.220581 1031.993774,1129.901855 
		C1022.302795,1111.780151 1012.791748,1093.562378 1003.106384,1075.437500 
		C988.925354,1048.899780 974.671753,1022.400879 960.427124,995.897217 
		C953.658264,983.302979 946.714539,970.800232 940.132629,958.109497 
		C938.568054,955.092651 937.035645,954.764771 933.961548,955.433594 
		C920.061646,958.458252 906.091736,961.160095 892.153870,964.011658 
		C871.651306,968.206238 851.153625,972.424805 830.655579,976.641296 
		C807.428467,981.419128 784.204712,986.213501 760.976562,990.986755 
		C737.272217,995.857727 713.566956,1000.724121 689.857422,1005.569763 
		C669.514465,1009.727295 649.163696,1013.846558 628.818665,1017.993835 
		C605.266602,1022.795044 581.718872,1027.617310 558.165894,1032.414062 
		C537.496887,1036.623535 516.821716,1040.803345 496.151886,1045.009155 
		C475.802032,1049.149780 455.449707,1053.278687 435.109009,1057.464111 
		C411.721954,1062.276245 388.353638,1067.179688 364.964020,1071.979370 
		C341.414948,1076.811646 317.847412,1081.553833 294.292084,1086.355957 
		C270.420654,1091.222778 246.551788,1096.102051 222.686798,1101.000244 
		C209.294922,1103.748901 195.913162,1106.546875 182.526840,1109.322510 
		C184.423447,1109.901855 186.267258,1110.104492 188.052887,1109.867798 
		C197.312592,1108.641235 206.544052,1107.196045 215.810883,1106.029663 
		C227.546722,1104.552490 239.317566,1103.353882 251.054016,1101.881104 
		C263.261047,1100.349487 275.439758,1098.593750 287.640900,1097.013062 
		C296.597687,1095.852783 305.576141,1094.860596 314.534729,1093.713623 
		C323.811218,1092.525757 333.068237,1091.185303 342.346924,1090.015869 
		C351.312164,1088.885986 360.305542,1087.976562 369.265961,1086.811890 
		C380.976593,1085.289673 392.658203,1083.544189 404.368958,1082.023071 
		C413.333832,1080.858887 422.332153,1079.953857 431.302063,1078.825806 
		C443.671478,1077.270264 456.025116,1075.589478 468.391388,1074.008179 
		C477.031586,1072.903564 485.687622,1071.921753 494.325836,1070.802368 
		C506.368317,1069.242310 518.393799,1067.550293 530.439819,1066.018311 
		C539.402161,1064.878418 548.395569,1063.981689 557.356995,1062.835083 
		C569.396606,1061.294800 581.412292,1059.568726 593.450317,1058.016235 
		C602.410156,1056.860718 611.397583,1055.918945 620.357605,1054.765015 
		C632.227844,1053.236328 644.078003,1051.552002 655.947144,1050.014160 
		C664.747498,1048.874023 673.569214,1047.898682 682.372620,1046.780884 
		C691.971802,1045.562256 701.557922,1044.240234 711.155396,1043.007202 
		C719.950867,1041.876953 728.760193,1040.853638 737.551941,1039.695679 
		C749.093872,1038.175659 760.612244,1036.472290 772.163269,1035.028320 
		C784.061279,1033.541016 796.003174,1032.401855 807.895081,1030.871094 
		C822.039734,1029.050415 836.145630,1026.930542 850.279419,1025.022827 
		C862.956909,1023.311462 875.634460,1021.577942 888.345215,1020.149841 
		C891.862061,1019.754700 896.764465,1019.008789 898.827698,1020.868408 
		C903.886963,1025.428589 907.665649,1031.410645 911.953186,1036.825684 
		C922.875732,1050.620728 933.789307,1064.422852 944.716736,1078.214111 
		C955.848267,1092.263062 966.983948,1106.308960 978.132690,1120.344238 
		C988.877808,1133.871338 999.644226,1147.381592 1010.397217,1160.902466 
		C1020.327332,1173.388428 1030.234497,1185.892578 1040.183838,1198.363159 
		C1051.262329,1212.249268 1062.402466,1226.086304 1073.468506,1239.982300 
		C1083.403076,1252.457397 1093.221680,1265.024902 1103.191895,1277.471436 
		C1109.159546,1284.921387 1115.319946,1292.217041 1121.709961,1300.115234 
	M1184.048462,1300.107910 
		C1184.375366,1293.680908 1184.555176,1287.242310 1185.058350,1280.829224 
		C1186.292603,1265.100708 1187.703369,1249.386353 1188.988525,1233.661865 
		C1189.712158,1224.806519 1190.348267,1215.943726 1190.987183,1207.081665 
		C1192.337158,1188.358032 1193.653442,1169.631958 1195.001831,1150.908203 
		C1195.983398,1137.281372 1197.016479,1123.658203 1197.986938,1110.030640 
		C1199.343628,1090.977905 1200.639160,1071.921021 1202.007324,1052.869141 
		C1202.962280,1039.572632 1204.022461,1026.283447 1204.985352,1012.987488 
		C1206.020264,998.696594 1206.984375,984.400635 1208.002197,970.108459 
		C1208.984375,956.316040 1210.004395,942.526367 1210.992310,928.734314 
		C1212.003906,914.611328 1212.983643,900.485962 1214.001465,886.363403 
		C1214.983643,872.735352 1216.078979,859.114807 1216.972290,845.481018 
		C1217.760132,833.459961 1218.322998,821.424194 1219.014893,809.396667 
		C1219.317993,804.130127 1219.629639,798.862549 1220.050903,793.604553 
		C1221.337402,777.547363 1222.780518,761.502014 1223.965576,745.437561 
		C1224.815063,733.922485 1225.196411,722.372620 1226.058472,710.858704 
		C1227.236816,695.123352 1228.701294,679.409607 1229.988403,663.682068 
		C1230.713135,654.825500 1231.359253,645.962158 1231.984985,637.097839 
		C1233.341919,617.878235 1234.632324,598.653748 1236.010132,579.435669 
		C1236.951538,566.305664 1238.035767,553.185974 1238.982422,540.056335 
		C1240.356079,521.001953 1241.647339,501.941650 1243.004272,482.886047 
		C1243.974609,469.259521 1245.007935,455.637543 1245.989380,442.011780 
		C1247.337769,423.290741 1248.653809,404.567413 1250.002075,385.846375 
		C1250.983643,372.218689 1252.012329,358.594391 1252.988159,344.966278 
		C1254.011230,330.675598 1254.984375,316.381287 1256.002197,302.090210 
		C1256.984619,288.298340 1257.995239,274.508453 1258.994995,260.717804 
		C1259.994995,246.925110 1261.001953,233.132904 1261.996338,219.339798 
		C1263.002686,205.380066 1264.070679,191.424210 1264.974609,177.457809 
		C1265.752563,165.436935 1266.323364,153.402802 1267.015137,141.376221 
		C1267.318115,136.110336 1267.625122,130.843063 1268.050293,125.586128 
		C1269.335327,109.695503 1270.685425,93.810158 1271.996826,77.921669 
		C1272.673340,69.727249 1273.412964,61.536400 1273.942383,53.332214 
		C1274.183228,49.599876 1273.983276,45.839096 1273.983276,41.003708 
		C1265.655396,42.779388 1258.216431,44.266495 1250.824463,45.959251 
		C1222.983887,52.334755 1195.156616,58.769173 1167.328003,65.197395 
		C1147.520508,69.772820 1127.713501,74.350700 1107.915771,78.968666 
		C1077.757446,86.003326 1047.609741,93.083252 1017.453308,100.125801 
		C991.859741,106.102760 966.260132,112.053421 940.663452,118.016899 
		C916.321777,123.687996 891.980713,129.361435 867.639038,135.032211 
		C847.694519,139.678604 827.746094,144.308456 807.805359,148.971298 
		C782.046570,154.994644 756.295654,161.051636 730.537781,167.079132 
		C704.932434,173.070938 679.324707,179.052185 653.714478,185.023163 
		C629.362732,190.700684 605.005920,196.356506 580.652405,202.026398 
		C560.707703,206.669830 540.761292,211.305878 520.821533,215.970367 
		C490.675934,223.022263 460.529938,230.072601 430.394897,237.169434 
		C412.508362,241.381744 394.659332,245.753983 376.763519,249.926041 
		C348.959686,256.407959 321.120819,262.739685 293.315247,269.214081 
		C275.406860,273.383972 257.535431,277.712250 239.640244,281.938965 
		C217.034317,287.278351 194.427658,292.614960 171.807739,297.894623 
		C162.523926,300.061554 153.204666,302.076691 143.262756,304.334839 
		C142.399384,304.913269 141.536011,305.491699 140.014603,306.523651 
		C139.315094,314.678833 138.762512,322.849945 137.879913,330.985260 
		C136.702713,341.836182 135.213852,352.652893 133.965637,363.496582 
		C133.181046,370.312653 132.679871,377.161377 131.895432,383.977448 
		C130.647644,394.819733 129.213867,405.640625 127.966698,416.482971 
		C127.180748,423.315643 126.679802,430.181091 125.893890,437.013763 
		C124.647316,447.851532 123.214020,458.667847 121.966866,469.505554 
		C121.181732,476.328339 120.679756,483.183746 119.894669,490.006531 
		C118.647667,500.843689 117.215057,511.659485 115.967987,522.496643 
		C115.183136,529.317078 114.680984,536.170105 113.896294,542.990540 
		C112.666519,553.679565 111.247849,564.346863 110.019760,575.036072 
		C109.217201,582.021667 108.697746,589.039795 107.895134,596.025391 
		C106.667412,606.710815 105.247398,617.374084 104.019783,628.059509 
		C103.216766,635.049194 102.697227,642.071411 101.894287,649.061096 
		C100.649429,659.897644 99.216240,670.712708 97.969391,681.549072 
		C97.184532,688.370178 96.715042,695.228271 95.887749,702.043518 
		C94.671028,712.067017 93.125305,722.051453 91.971451,732.081421 
		C90.794739,742.310059 90.042694,752.587402 88.883057,762.818237 
		C87.708252,773.182739 86.164787,783.505310 84.968071,793.867615 
		C84.123711,801.178955 83.687958,808.536804 82.892448,815.854614 
		C81.659737,827.194092 80.258179,838.515076 78.962822,849.847900 
		C78.221397,856.334412 77.583687,862.832947 76.836784,869.318787 
		C75.567566,880.340088 74.222542,891.352722 72.960999,902.374939 
		C72.199989,909.023926 71.605995,915.692444 70.813171,922.337402 
		C69.576622,932.701233 68.154121,943.043213 66.965622,953.412292 
		C66.146675,960.557251 65.719109,967.747253 64.885536,974.890137 
		C63.678219,985.235779 62.160862,995.545410 60.969246,1005.892700 
		C60.125675,1013.217590 59.720737,1020.592468 58.908127,1027.921631 
		C57.685886,1038.945312 56.275280,1049.947998 54.950615,1060.960327 
		C54.042210,1068.512329 53.143780,1076.065430 52.224739,1083.753174 
		C52.706795,1083.855225 53.198650,1084.112305 53.621044,1084.026611 
		C69.925484,1080.722168 86.233177,1077.432617 102.519684,1074.041260 
		C117.853203,1070.848511 133.145996,1067.458984 148.488632,1064.311523 
		C165.587219,1060.803955 182.725067,1057.488281 199.839798,1054.059082 
		C216.794342,1050.661987 233.757339,1047.304565 250.687500,1043.789429 
		C270.761200,1039.621582 290.785614,1035.215820 310.865417,1031.078003 
		C328.118622,1027.522583 345.428802,1024.244385 362.697021,1020.760376 
		C380.112305,1017.246765 397.503815,1013.615540 414.911438,1010.063721 
		C431.854095,1006.606689 448.818298,1003.253723 465.746765,999.729004 
		C484.078857,995.912109 502.359100,991.844910 520.701721,988.080688 
		C537.959106,984.539185 555.287659,981.344543 572.549927,977.825867 
		C592.961792,973.665100 613.326843,969.274902 633.729614,965.068848 
		C652.884216,961.120178 672.062317,957.285828 691.228516,953.393616 
		C708.170959,949.953003 725.115601,946.522949 742.051208,943.048889 
		C754.548584,940.485291 767.028870,937.838745 779.524231,935.264832 
		C796.137695,931.842651 812.755432,928.441162 829.376526,925.056458 
		C844.891968,921.896973 860.418335,918.791626 875.932129,915.624451 
		C891.438904,912.458801 906.941772,909.273315 922.435669,906.045471 
		C936.282288,903.160706 950.114380,900.206360 964.662659,897.146179 
		C969.641357,906.138000 974.716125,915.078308 979.578552,924.132568 
		C989.462280,942.537048 999.190674,961.024841 1009.057617,979.438354 
		C1021.890686,1003.387085 1034.829346,1027.279419 1047.659912,1051.229492 
		C1057.829468,1070.212524 1067.873169,1089.263062 1078.030396,1108.252808 
		C1090.843384,1132.207520 1103.742432,1156.116089 1116.552368,1180.072388 
		C1126.783081,1199.204956 1136.930908,1218.381836 1147.124878,1237.533936 
		C1158.530518,1258.962524 1169.942383,1280.387695 1181.374146,1301.802246 
		C1181.822266,1302.641724 1182.504883,1303.355957 1183.843872,1305.160156 
		C1183.843872,1302.875732 1183.843872,1301.927979 1184.048462,1300.107910 
	M560.555725,155.017700 
		C577.933594,150.996063 595.310974,146.972504 612.689392,142.953217 
		C648.876099,134.583984 685.068542,126.239426 721.248718,117.842010 
		C751.201599,110.889946 781.143677,103.890923 811.084412,96.886772 
		C846.911621,88.505577 882.735596,80.110756 918.554810,71.695465 
		C946.418884,65.149132 974.261414,58.510780 1002.135193,52.006226 
		C1039.898315,43.193939 1077.681030,34.465233 1115.457886,25.711618 
		C1129.643555,22.424520 1143.852539,19.235765 1158.020386,15.873947 
		C1167.532837,13.616780 1176.991943,11.134179 1186.474854,8.752429 
		C1186.413208,8.459933 1186.351562,8.167438 1186.289917,7.874942 
		C795.626953,74.092163 404.963959,140.309387 14.216815,206.540863 
		C13.810877,209.038513 13.093987,211.454941 13.072398,213.877563 
		C12.665996,259.482849 12.340333,305.088837 12.001093,350.694702 
		C11.665572,395.800629 11.294978,440.906311 11.009835,486.012543 
		C10.637247,544.951477 10.384541,603.891235 9.979648,662.829956 
		C9.762517,694.436707 9.278493,726.041565 9.015145,757.648132 
		C8.632380,803.586975 8.232562,849.526123 8.042196,895.465942 
		C7.879900,934.631836 8.002866,973.798950 7.999670,1012.965515 
		C7.999522,1014.775818 7.999650,1016.586121 7.999650,1018.396423 
		C9.423197,1011.456421 10.256528,1004.488403 10.987928,997.509705 
		C11.743067,990.304504 12.306634,983.078613 13.120157,975.880493 
		C14.337369,965.110596 15.734003,954.360962 16.988379,943.595093 
		C17.806662,936.572021 18.455559,929.529297 19.274271,922.506287 
		C20.471949,912.232544 21.819969,901.976135 22.980997,891.698486 
		C24.107218,881.729126 24.997986,871.733032 26.139566,861.765564 
		C27.334747,851.330200 28.794891,840.924988 29.973841,830.487915 
		C31.118977,820.350281 31.977011,810.180420 33.102757,800.040466 
		C34.316616,789.106934 35.747925,778.197510 36.985600,767.266479 
		C38.095387,757.464905 38.975452,747.636841 40.129387,737.840759 
		C41.665104,724.803711 43.461861,711.797302 44.968834,698.757141 
		C46.139427,688.627625 46.924736,678.453674 48.085644,668.322937 
		C49.618244,654.948608 51.459808,641.609436 52.966175,628.232361 
		C54.456757,614.995667 55.560448,601.715088 57.079788,588.481934 
		C58.915535,572.493042 61.124680,556.546997 62.956779,540.557739 
		C64.473305,527.322571 65.534668,514.035156 67.055916,500.800598 
		C68.892372,484.823792 71.126511,468.892578 72.953590,452.914795 
		C74.486336,439.510986 75.534561,426.051758 77.064713,412.647583 
		C78.889984,396.658203 81.070717,380.709747 82.966469,364.727997 
		C84.727684,349.880524 86.362282,335.017517 87.969017,320.152313 
		C89.700714,304.131073 91.280029,288.093201 93.046982,272.075989 
		C93.555313,267.468018 93.899147,263.156860 100.406944,262.102753 
		C111.700211,260.273468 122.841911,257.463593 134.004242,254.879532 
		C164.132080,247.904953 194.235718,240.825943 224.351929,233.801163 
		C254.305023,226.814407 284.265045,219.857315 314.216064,212.861618 
		C349.891541,204.528870 385.570099,196.209015 421.229462,187.807831 
		C448.928070,181.282150 476.592377,174.611115 504.285065,168.060257 
		C522.749023,163.692535 541.236084,159.422531 560.555725,155.017700 
	z"/>
	<path fill="#FFFFFF" opacity="1.000000" stroke="none" 
		d="
	M140.672638,306.070129 
		C141.536011,305.491699 142.399384,304.913269 143.921661,304.492310 
		C148.231781,304.681244 151.899918,304.955597 155.531281,304.702393 
		C171.795059,303.568451 188.043777,302.219330 204.306580,301.070312 
		C225.557068,299.568817 246.819382,298.234558 268.070007,296.734863 
		C299.783020,294.496796 331.489563,292.167114 363.200256,289.895782 
		C382.958832,288.480560 402.720917,287.114594 422.479675,285.702087 
		C449.042023,283.803223 475.601471,281.863983 502.164429,279.974030 
		C522.249207,278.544952 542.340271,277.204071 562.423645,275.755005 
		C588.479980,273.874939 614.528259,271.884064 640.585815,270.020905 
		C661.506226,268.525055 682.438354,267.192627 703.359680,265.708344 
		C734.407532,263.505615 765.449341,261.217102 796.495850,258.995392 
		C816.752502,257.545837 837.015564,256.184113 857.271240,254.721237 
		C882.997498,252.863281 908.715759,250.894318 934.443970,249.064285 
		C955.690308,247.553040 976.949402,246.221649 998.196777,244.724884 
		C1025.091797,242.830261 1051.981689,240.864334 1078.871704,238.899094 
		C1094.973145,237.722290 1111.067993,236.449997 1127.170898,235.292831 
		C1138.249268,234.496719 1149.336792,233.824432 1160.013062,233.123535 
		C1160.013062,235.994553 1159.962524,238.441223 1160.020874,240.885300 
		C1160.601318,265.197693 1161.228516,289.508972 1161.785767,313.821899 
		C1162.472900,343.798706 1163.110229,373.776672 1163.761230,403.754333 
		C1164.452148,435.564728 1165.129028,467.375427 1165.821045,499.185791 
		C1166.462524,528.663574 1167.124268,558.140869 1167.761963,587.618774 
		C1168.475342,620.595459 1169.160522,653.572815 1169.878784,686.549438 
		C1170.488159,714.527954 1171.144287,742.505371 1171.748657,770.484009 
		C1172.485962,804.626770 1173.173706,838.770630 1173.915039,872.913330 
		C1174.504639,900.058777 1175.172363,927.202515 1175.751343,954.348206 
		C1176.525879,990.657043 1177.219116,1026.967651 1178.002808,1063.276245 
		C1178.534790,1087.922974 1179.208130,1112.566406 1179.736084,1137.213135 
		C1180.528320,1174.188354 1181.234863,1211.165161 1182.005127,1248.140869 
		C1182.334717,1263.963013 1182.713501,1279.784302 1183.127563,1295.604492 
		C1183.174561,1297.401367 1183.596069,1299.188599 1183.843872,1300.980225 
		C1183.843872,1301.927979 1183.843872,1302.875732 1183.843872,1305.160156 
		C1182.504883,1303.355957 1181.822266,1302.641724 1181.374146,1301.802246 
		C1169.942383,1280.387695 1158.530518,1258.962524 1147.124878,1237.533936 
		C1136.930908,1218.381836 1126.783081,1199.204956 1116.552368,1180.072388 
		C1103.742432,1156.116089 1090.843384,1132.207520 1078.030396,1108.252808 
		C1067.873169,1089.263062 1057.829468,1070.212524 1047.659912,1051.229492 
		C1034.829346,1027.279419 1021.890686,1003.387085 1009.057617,979.438354 
		C999.190674,961.024841 989.462280,942.537048 979.578552,924.132568 
		C974.716125,915.078308 969.641357,906.138000 963.861450,897.187256 
		C955.578430,897.579224 948.086792,897.788696 940.616516,898.305908 
		C908.900818,900.501648 877.193420,902.816589 845.479126,905.032532 
		C824.555725,906.494446 803.622864,907.818970 782.699585,909.281860 
		C750.984497,911.499207 719.276184,913.812561 687.561096,916.029053 
		C666.637817,917.491394 645.704529,918.810730 624.781311,920.273804 
		C593.067322,922.491333 561.360352,924.808289 529.646362,927.024963 
		C508.723053,928.487488 487.790131,929.811279 466.866119,931.263672 
		C439.468750,933.165466 412.076813,935.145386 384.680817,937.066956 
		C368.905945,938.173401 353.125824,939.205200 337.351257,940.315796 
		C305.970154,942.525146 274.590668,944.757507 243.211685,946.996765 
		C226.111679,948.216980 209.017548,949.521362 191.914322,950.693787 
		C176.842438,951.726929 161.761612,952.629333 146.374115,953.609253 
		C146.271393,951.867371 146.121780,950.406799 146.108414,948.944946 
		C145.815643,916.952454 145.525818,884.959961 145.260498,852.967285 
		C144.913651,811.141785 144.589233,769.316101 144.253769,727.490540 
		C143.923660,686.331665 143.589783,645.172791 143.261154,604.013916 
		C142.915237,560.688416 142.602051,517.362671 142.222916,474.037506 
		C141.732941,418.048157 141.191772,362.059235 140.672638,306.070129 
	M902.991394,574.207764 
		C903.025452,572.708557 903.093445,571.209290 903.088440,569.710205 
		C903.025024,550.753784 891.739685,534.078491 874.098938,526.857239 
		C856.664368,519.720398 836.663696,523.825500 823.378845,537.267395 
		C810.113098,550.690063 806.231934,570.860413 813.593506,588.121094 
		C821.537109,606.746643 841.471375,618.872498 860.302734,616.534058 
		C883.837769,613.611572 899.309265,598.583191 902.991394,574.207764 
	M358.568512,631.048279 
		C366.126862,634.988770 374.166809,636.489624 382.664215,636.127014 
		C406.794220,635.097168 426.544037,614.364441 426.641541,589.838623 
		C426.739746,565.138550 406.865082,544.026428 382.589508,543.043823 
		C360.452271,542.147766 340.953888,555.972656 335.085632,576.725342 
		C329.070251,597.998352 338.057190,619.260803 358.568512,631.048279 
	M610.105591,625.825134 
		C612.431396,625.986938 614.756531,626.279419 617.083069,626.289978 
		C636.807983,626.380005 651.550903,617.642700 660.104919,600.033386 
		C668.781799,582.171326 666.447266,564.713684 653.623291,549.650208 
		C641.084839,534.922180 624.632629,529.997864 605.820984,534.980896 
		C584.922363,540.516663 571.277161,559.331909 571.755066,581.110779 
		C572.233948,602.934143 586.880127,620.316956 610.105591,625.825134 
	z"/>
	<path fill="rgb(255, 253, 2)" opacity="1.000000" stroke="none" 
		d="
	M1183.946167,1300.544067 
		C1183.596069,1299.188599 1183.174561,1297.401367 1183.127563,1295.604492 
		C1182.713501,1279.784302 1182.334717,1263.963013 1182.005127,1248.140869 
		C1181.234863,1211.165161 1180.528320,1174.188354 1179.736084,1137.213135 
		C1179.208130,1112.566406 1178.534790,1087.922974 1178.002808,1063.276245 
		C1177.219116,1026.967651 1176.525879,990.657043 1175.751343,954.348206 
		C1175.172363,927.202515 1174.504639,900.058777 1173.915039,872.913330 
		C1173.173706,838.770630 1172.485962,804.626770 1171.748657,770.484009 
		C1171.144287,742.505371 1170.488159,714.527954 1169.878784,686.549438 
		C1169.160522,653.572815 1168.475342,620.595459 1167.761963,587.618774 
		C1167.124268,558.140869 1166.462524,528.663574 1165.821045,499.185791 
		C1165.129028,467.375427 1164.452148,435.564728 1163.761230,403.754333 
		C1163.110229,373.776672 1162.472900,343.798706 1161.785767,313.821899 
		C1161.228516,289.508972 1160.601318,265.197693 1160.020874,240.885300 
		C1159.962524,238.441223 1160.013062,235.994553 1160.013062,233.123535 
		C1149.336792,233.824432 1138.249268,234.496719 1127.170898,235.292831 
		C1111.067993,236.449997 1094.973145,237.722290 1078.871704,238.899094 
		C1051.981689,240.864334 1025.091797,242.830261 998.196777,244.724884 
		C976.949402,246.221649 955.690308,247.553040 934.443970,249.064285 
		C908.715759,250.894318 882.997498,252.863281 857.271240,254.721237 
		C837.015564,256.184113 816.752502,257.545837 796.495850,258.995392 
		C765.449341,261.217102 734.407532,263.505615 703.359680,265.708344 
		C682.438354,267.192627 661.506226,268.525055 640.585815,270.020905 
		C614.528259,271.884064 588.479980,273.874939 562.423645,275.755005 
		C542.340271,277.204071 522.249207,278.544952 502.164429,279.974030 
		C475.601471,281.863983 449.042023,283.803223 422.479675,285.702087 
		C402.720917,287.114594 382.958832,288.480560 363.200256,289.895782 
		C331.489563,292.167114 299.783020,294.496796 268.070007,296.734863 
		C246.819382,298.234558 225.557068,299.568817 204.306580,301.070312 
		C188.043777,302.219330 171.795059,303.568451 155.531281,304.702393 
		C151.899918,304.955597 148.231781,304.681244 144.241058,304.405334 
		C153.204666,302.076691 162.523926,300.061554 171.807739,297.894623 
		C194.427658,292.614960 217.034317,287.278351 239.640244,281.938965 
		C257.535431,277.712250 275.406860,273.383972 293.315247,269.214081 
		C321.120819,262.739685 348.959686,256.407959 376.763519,249.926041 
		C394.659332,245.753983 412.508362,241.381744 430.394897,237.169434 
		C460.529938,230.072601 490.675934,223.022263 520.821533,215.970367 
		C540.761292,211.305878 560.707703,206.669830 580.652405,202.026398 
		C605.005920,196.356506 629.362732,190.700684 653.714478,185.023163 
		C679.324707,179.052185 704.932434,173.070938 730.537781,167.079132 
		C756.295654,161.051636 782.046570,154.994644 807.805359,148.971298 
		C827.746094,144.308456 847.694519,139.678604 867.639038,135.032211 
		C891.980713,129.361435 916.321777,123.687996 940.663452,118.016899 
		C966.260132,112.053421 991.859741,106.102760 1017.453308,100.125801 
		C1047.609741,93.083252 1077.757446,86.003326 1107.915771,78.968666 
		C1127.713501,74.350700 1147.520508,69.772820 1167.328003,65.197395 
		C1195.156616,58.769173 1222.983887,52.334755 1250.824463,45.959251 
		C1258.216431,44.266495 1265.655396,42.779388 1273.983276,41.003708 
		C1273.983276,45.839096 1274.183228,49.599876 1273.942383,53.332214 
		C1273.412964,61.536400 1272.673340,69.727249 1271.996826,77.921669 
		C1270.685425,93.810158 1269.335327,109.695503 1268.050293,125.586128 
		C1267.625122,130.843063 1267.318115,136.110336 1267.015137,141.376221 
		C1266.323364,153.402802 1265.752563,165.436935 1264.974609,177.457809 
		C1264.070679,191.424210 1263.002686,205.380066 1261.996338,219.339798 
		C1261.001953,233.132904 1259.994995,246.925110 1258.994995,260.717804 
		C1257.995239,274.508453 1256.984619,288.298340 1256.002197,302.090210 
		C1254.984375,316.381287 1254.011230,330.675598 1252.988159,344.966278 
		C1252.012329,358.594391 1250.983643,372.218689 1250.002075,385.846375 
		C1248.653809,404.567413 1247.337769,423.290741 1245.989380,442.011780 
		C1245.007935,455.637543 1243.974609,469.259521 1243.004272,482.886047 
		C1241.647339,501.941650 1240.356079,521.001953 1238.982422,540.056335 
		C1238.035767,553.185974 1236.951538,566.305664 1236.010132,579.435669 
		C1234.632324,598.653748 1233.341919,617.878235 1231.984985,637.097839 
		C1231.359253,645.962158 1230.713135,654.825500 1229.988403,663.682068 
		C1228.701294,679.409607 1227.236816,695.123352 1226.058472,710.858704 
		C1225.196411,722.372620 1224.815063,733.922485 1223.965576,745.437561 
		C1222.780518,761.502014 1221.337402,777.547363 1220.050903,793.604553 
		C1219.629639,798.862549 1219.317993,804.130127 1219.014893,809.396667 
		C1218.322998,821.424194 1217.760132,833.459961 1216.972290,845.481018 
		C1216.078979,859.114807 1214.983643,872.735352 1214.001465,886.363403 
		C1212.983643,900.485962 1212.003906,914.611328 1210.992310,928.734314 
		C1210.004395,942.526367 1208.984375,956.316040 1208.002197,970.108459 
		C1206.984375,984.400635 1206.020264,998.696594 1204.985352,1012.987488 
		C1204.022461,1026.283447 1202.962280,1039.572632 1202.007324,1052.869141 
		C1200.639160,1071.921021 1199.343628,1090.977905 1197.986938,1110.030640 
		C1197.016479,1123.658203 1195.983398,1137.281372 1195.001831,1150.908203 
		C1193.653442,1169.631958 1192.337158,1188.358032 1190.987183,1207.081665 
		C1190.348267,1215.943726 1189.712158,1224.806519 1188.988525,1233.661865 
		C1187.703369,1249.386353 1186.292603,1265.100708 1185.058350,1280.829224 
		C1184.555176,1287.242310 1184.375366,1293.680908 1183.946167,1300.544067 
	z"/>
	<path fill="rgb(255, 253, 2)" opacity="1.000000" stroke="none" 
		d="
	M140.343628,306.296875 
		C141.191772,362.059235 141.732941,418.048157 142.222916,474.037506 
		C142.602051,517.362671 142.915237,560.688416 143.261154,604.013916 
		C143.589783,645.172791 143.923660,686.331665 144.253769,727.490540 
		C144.589233,769.316101 144.913651,811.141785 145.260498,852.967285 
		C145.525818,884.959961 145.815643,916.952454 146.108414,948.944946 
		C146.121780,950.406799 146.271393,951.867371 146.374115,953.609253 
		C161.761612,952.629333 176.842438,951.726929 191.914322,950.693787 
		C209.017548,949.521362 226.111679,948.216980 243.211685,946.996765 
		C274.590668,944.757507 305.970154,942.525146 337.351257,940.315796 
		C353.125824,939.205200 368.905945,938.173401 384.680817,937.066956 
		C412.076813,935.145386 439.468750,933.165466 466.866119,931.263672 
		C487.790131,929.811279 508.723053,928.487488 529.646362,927.024963 
		C561.360352,924.808289 593.067322,922.491333 624.781311,920.273804 
		C645.704529,918.810730 666.637817,917.491394 687.561096,916.029053 
		C719.276184,913.812561 750.984497,911.499207 782.699585,909.281860 
		C803.622864,907.818970 824.555725,906.494446 845.479126,905.032532 
		C877.193420,902.816589 908.900818,900.501648 940.616516,898.305908 
		C948.086792,897.788696 955.578430,897.579224 963.506592,897.255493 
		C950.114380,900.206360 936.282288,903.160706 922.435669,906.045471 
		C906.941772,909.273315 891.438904,912.458801 875.932129,915.624451 
		C860.418335,918.791626 844.891968,921.896973 829.376526,925.056458 
		C812.755432,928.441162 796.137695,931.842651 779.524231,935.264832 
		C767.028870,937.838745 754.548584,940.485291 742.051208,943.048889 
		C725.115601,946.522949 708.170959,949.953003 691.228516,953.393616 
		C672.062317,957.285828 652.884216,961.120178 633.729614,965.068848 
		C613.326843,969.274902 592.961792,973.665100 572.549927,977.825867 
		C555.287659,981.344543 537.959106,984.539185 520.701721,988.080688 
		C502.359100,991.844910 484.078857,995.912109 465.746765,999.729004 
		C448.818298,1003.253723 431.854095,1006.606689 414.911438,1010.063721 
		C397.503815,1013.615540 380.112305,1017.246765 362.697021,1020.760376 
		C345.428802,1024.244385 328.118622,1027.522583 310.865417,1031.078003 
		C290.785614,1035.215820 270.761200,1039.621582 250.687500,1043.789429 
		C233.757339,1047.304565 216.794342,1050.661987 199.839798,1054.059082 
		C182.725067,1057.488281 165.587219,1060.803955 148.488632,1064.311523 
		C133.145996,1067.458984 117.853203,1070.848511 102.519684,1074.041260 
		C86.233177,1077.432617 69.925484,1080.722168 53.621044,1084.026611 
		C53.198650,1084.112305 52.706795,1083.855225 52.224739,1083.753174 
		C53.143780,1076.065430 54.042210,1068.512329 54.950615,1060.960327 
		C56.275280,1049.947998 57.685886,1038.945312 58.908127,1027.921631 
		C59.720737,1020.592468 60.125675,1013.217590 60.969246,1005.892700 
		C62.160862,995.545410 63.678219,985.235779 64.885536,974.890137 
		C65.719109,967.747253 66.146675,960.557251 66.965622,953.412292 
		C68.154121,943.043213 69.576622,932.701233 70.813171,922.337402 
		C71.605995,915.692444 72.199989,909.023926 72.960999,902.374939 
		C74.222542,891.352722 75.567566,880.340088 76.836784,869.318787 
		C77.583687,862.832947 78.221397,856.334412 78.962822,849.847900 
		C80.258179,838.515076 81.659737,827.194092 82.892448,815.854614 
		C83.687958,808.536804 84.123711,801.178955 84.968071,793.867615 
		C86.164787,783.505310 87.708252,773.182739 88.883057,762.818237 
		C90.042694,752.587402 90.794739,742.310059 91.971451,732.081421 
		C93.125305,722.051453 94.671028,712.067017 95.887749,702.043518 
		C96.715042,695.228271 97.184532,688.370178 97.969391,681.549072 
		C99.216240,670.712708 100.649429,659.897644 101.894287,649.061096 
		C102.697227,642.071411 103.216766,635.049194 104.019783,628.059509 
		C105.247398,617.374084 106.667412,606.710815 107.895134,596.025391 
		C108.697746,589.039795 109.217201,582.021667 110.019760,575.036072 
		C111.247849,564.346863 112.666519,553.679565 113.896294,542.990540 
		C114.680984,536.170105 115.183136,529.317078 115.967987,522.496643 
		C117.215057,511.659485 118.647667,500.843689 119.894669,490.006531 
		C120.679756,483.183746 121.181732,476.328339 121.966866,469.505554 
		C123.214020,458.667847 124.647316,447.851532 125.893890,437.013763 
		C126.679802,430.181091 127.180748,423.315643 127.966698,416.482971 
		C129.213867,405.640625 130.647644,394.819733 131.895432,383.977448 
		C132.679871,377.161377 133.181046,370.312653 133.965637,363.496582 
		C135.213852,352.652893 136.702713,341.836182 137.879913,330.985260 
		C138.762512,322.849945 139.315094,314.678833 140.343628,306.296875 
	z"/>
	<path fill="rgb(248, 226, 17)" opacity="1.000000" stroke="none" 
		d="
	M560.134277,155.063248 
		C541.236084,159.422531 522.749023,163.692535 504.285065,168.060257 
		C476.592377,174.611115 448.928070,181.282150 421.229462,187.807831 
		C385.570099,196.209015 349.891541,204.528870 314.216064,212.861618 
		C284.265045,219.857315 254.305023,226.814407 224.351929,233.801163 
		C194.235718,240.825943 164.132080,247.904953 134.004242,254.879532 
		C122.841911,257.463593 111.700211,260.273468 100.406944,262.102753 
		C93.899147,263.156860 93.555313,267.468018 93.046982,272.075989 
		C91.280029,288.093201 89.700714,304.131073 87.969017,320.152313 
		C86.362282,335.017517 84.727684,349.880524 82.966469,364.727997 
		C81.070717,380.709747 78.889984,396.658203 77.064713,412.647583 
		C75.534561,426.051758 74.486336,439.510986 72.953590,452.914795 
		C71.126511,468.892578 68.892372,484.823792 67.055916,500.800598 
		C65.534668,514.035156 64.473305,527.322571 62.956779,540.557739 
		C61.124680,556.546997 58.915535,572.493042 57.079788,588.481934 
		C55.560448,601.715088 54.456757,614.995667 52.966175,628.232361 
		C51.459808,641.609436 49.618244,654.948608 48.085644,668.322937 
		C46.924736,678.453674 46.139427,688.627625 44.968834,698.757141 
		C43.461861,711.797302 41.665104,724.803711 40.129387,737.840759 
		C38.975452,747.636841 38.095387,757.464905 36.985600,767.266479 
		C35.747925,778.197510 34.316616,789.106934 33.102757,800.040466 
		C31.977011,810.180420 31.118977,820.350281 29.973841,830.487915 
		C28.794891,840.924988 27.334747,851.330200 26.139566,861.765564 
		C24.997986,871.733032 24.107218,881.729126 22.980997,891.698486 
		C21.819969,901.976135 20.471949,912.232544 19.274271,922.506287 
		C18.455559,929.529297 17.806662,936.572021 16.988379,943.595093 
		C15.734003,954.360962 14.337369,965.110596 13.120157,975.880493 
		C12.306634,983.078613 11.743067,990.304504 10.987928,997.509705 
		C10.256528,1004.488403 9.423197,1011.456421 7.999650,1018.396423 
		C7.999650,1016.586121 7.999522,1014.775818 7.999670,1012.965515 
		C8.002866,973.798950 7.879900,934.631836 8.042196,895.465942 
		C8.232562,849.526123 8.632380,803.586975 9.015145,757.648132 
		C9.278493,726.041565 9.762517,694.436707 9.979648,662.829956 
		C10.384541,603.891235 10.637247,544.951477 11.009835,486.012543 
		C11.294978,440.906311 11.665572,395.800629 12.001093,350.694702 
		C12.340333,305.088837 12.665996,259.482849 13.072398,213.877563 
		C13.093987,211.454941 13.810877,209.038513 14.216815,206.540863 
		C404.963959,140.309387 795.626953,74.092163 1186.289917,7.874942 
		C1186.351562,8.167438 1186.413208,8.459933 1186.474854,8.752429 
		C1176.991943,11.134179 1167.532837,13.616780 1158.020386,15.873947 
		C1143.852539,19.235765 1129.643555,22.424520 1115.457886,25.711618 
		C1077.681030,34.465233 1039.898315,43.193939 1002.135193,52.006226 
		C974.261414,58.510780 946.418884,65.149132 918.554810,71.695465 
		C882.735596,80.110756 846.911621,88.505577 811.084412,96.886772 
		C781.143677,103.890923 751.201599,110.889946 721.248718,117.842010 
		C685.068542,126.239426 648.876099,134.583984 612.689392,142.953217 
		C595.310974,146.972504 577.933594,150.996063 560.134277,155.063248 
	z"/>
	<path fill="rgb(248, 226, 17)" opacity="1.000000" stroke="none" 
		d="
	M1121.393799,1299.582031 
		C1115.319946,1292.217041 1109.159546,1284.921387 1103.191895,1277.471436 
		C1093.221680,1265.024902 1083.403076,1252.457397 1073.468506,1239.982300 
		C1062.402466,1226.086304 1051.262329,1212.249268 1040.183838,1198.363159 
		C1030.234497,1185.892578 1020.327332,1173.388428 1010.397217,1160.902466 
		C999.644226,1147.381592 988.877808,1133.871338 978.132690,1120.344238 
		C966.983948,1106.308960 955.848267,1092.263062 944.716736,1078.214111 
		C933.789307,1064.422852 922.875732,1050.620728 911.953186,1036.825684 
		C907.665649,1031.410645 903.886963,1025.428589 898.827698,1020.868408 
		C896.764465,1019.008789 891.862061,1019.754700 888.345215,1020.149841 
		C875.634460,1021.577942 862.956909,1023.311462 850.279419,1025.022827 
		C836.145630,1026.930542 822.039734,1029.050415 807.895081,1030.871094 
		C796.003174,1032.401855 784.061279,1033.541016 772.163269,1035.028320 
		C760.612244,1036.472290 749.093872,1038.175659 737.551941,1039.695679 
		C728.760193,1040.853638 719.950867,1041.876953 711.155396,1043.007202 
		C701.557922,1044.240234 691.971802,1045.562256 682.372620,1046.780884 
		C673.569214,1047.898682 664.747498,1048.874023 655.947144,1050.014160 
		C644.078003,1051.552002 632.227844,1053.236328 620.357605,1054.765015 
		C611.397583,1055.918945 602.410156,1056.860718 593.450317,1058.016235 
		C581.412292,1059.568726 569.396606,1061.294800 557.356995,1062.835083 
		C548.395569,1063.981689 539.402161,1064.878418 530.439819,1066.018311 
		C518.393799,1067.550293 506.368317,1069.242310 494.325836,1070.802368 
		C485.687622,1071.921753 477.031586,1072.903564 468.391388,1074.008179 
		C456.025116,1075.589478 443.671478,1077.270264 431.302063,1078.825806 
		C422.332153,1079.953857 413.333832,1080.858887 404.368958,1082.023071 
		C392.658203,1083.544189 380.976593,1085.289673 369.265961,1086.811890 
		C360.305542,1087.976562 351.312164,1088.885986 342.346924,1090.015869 
		C333.068237,1091.185303 323.811218,1092.525757 314.534729,1093.713623 
		C305.576141,1094.860596 296.597687,1095.852783 287.640900,1097.013062 
		C275.439758,1098.593750 263.261047,1100.349487 251.054016,1101.881104 
		C239.317566,1103.353882 227.546722,1104.552490 215.810883,1106.029663 
		C206.544052,1107.196045 197.312592,1108.641235 188.052887,1109.867798 
		C186.267258,1110.104492 184.423447,1109.901855 182.526840,1109.322510 
		C195.913162,1106.546875 209.294922,1103.748901 222.686798,1101.000244 
		C246.551788,1096.102051 270.420654,1091.222778 294.292084,1086.355957 
		C317.847412,1081.553833 341.414948,1076.811646 364.964020,1071.979370 
		C388.353638,1067.179688 411.721954,1062.276245 435.109009,1057.464111 
		C455.449707,1053.278687 475.802032,1049.149780 496.151886,1045.009155 
		C516.821716,1040.803345 537.496887,1036.623535 558.165894,1032.414062 
		C581.718872,1027.617310 605.266602,1022.795044 628.818665,1017.993835 
		C649.163696,1013.846558 669.514465,1009.727295 689.857422,1005.569763 
		C713.566956,1000.724121 737.272217,995.857727 760.976562,990.986755 
		C784.204712,986.213501 807.428467,981.419128 830.655579,976.641296 
		C851.153625,972.424805 871.651306,968.206238 892.153870,964.011658 
		C906.091736,961.160095 920.061646,958.458252 933.961548,955.433594 
		C937.035645,954.764771 938.568054,955.092651 940.132629,958.109497 
		C946.714539,970.800232 953.658264,983.302979 960.427124,995.897217 
		C974.671753,1022.400879 988.925354,1048.899780 1003.106384,1075.437500 
		C1012.791748,1093.562378 1022.302795,1111.780151 1031.993774,1129.901855 
		C1048.742310,1161.220581 1065.600464,1192.480591 1082.354614,1223.796387 
		C1095.611694,1248.575439 1108.781860,1273.401001 1121.854370,1298.719971 
		C1121.718140,1299.234131 1121.393799,1299.582031 1121.393799,1299.582031 
	z"/>
	<path fill="rgb(248, 226, 17)" opacity="1.000000" stroke="none" 
		d="
	M1121.900879,1299.081909 
		C1122.659912,1299.790405 1123.236328,1300.651123 1123.812744,1301.511963 
		C1123.561646,1301.689087 1123.310425,1301.866333 1123.059326,1302.043579 
		C1122.609497,1301.400757 1122.159790,1300.758057 1121.551880,1299.848633 
		C1121.393799,1299.582031 1121.718140,1299.234131 1121.900879,1299.081909 
	z"/>
	<path fill="rgb(248, 226, 17)" opacity="1.000000" stroke="none" 
		d="
	M902.962952,574.665527 
		C899.309265,598.583191 883.837769,613.611572 860.302734,616.534058 
		C841.471375,618.872498 821.537109,606.746643 813.593506,588.121094 
		C806.231934,570.860413 810.113098,550.690063 823.378845,537.267395 
		C836.663696,523.825500 856.664368,519.720398 874.098938,526.857239 
		C891.739685,534.078491 903.025024,550.753784 903.088440,569.710205 
		C903.093445,571.209290 903.025452,572.708557 902.962952,574.665527 
	z"/>
	<path fill="rgb(248, 226, 17)" opacity="1.000000" stroke="none" 
		d="
	M358.236816,630.881470 
		C338.057190,619.260803 329.070251,597.998352 335.085632,576.725342 
		C340.953888,555.972656 360.452271,542.147766 382.589508,543.043823 
		C406.865082,544.026428 426.739746,565.138550 426.641541,589.838623 
		C426.544037,614.364441 406.794220,635.097168 382.664215,636.127014 
		C374.166809,636.489624 366.126862,634.988770 358.236816,630.881470 
	z"/>
	<path fill="rgb(248, 226, 17)" opacity="1.000000" stroke="none" 
		d="
	M609.678467,625.719238 
		C586.880127,620.316956 572.233948,602.934143 571.755066,581.110779 
		C571.277161,559.331909 584.922363,540.516663 605.820984,534.980896 
		C624.632629,529.997864 641.084839,534.922180 653.623291,549.650208 
		C666.447266,564.713684 668.781799,582.171326 660.104919,600.033386 
		C651.550903,617.642700 636.807983,626.380005 617.083069,626.289978 
		C614.756531,626.279419 612.431396,625.986938 609.678467,625.719238 
	z"/>
</svg>